<?xml version="1.0" encoding="utf-8"?>
<!-- Generator: Adobe Illustrator 26.0.0, SVG Export Plug-In . SVG Version: 6.00 Build 0)  -->
<svg version="1.1" id="Calque_1" xmlns="http://www.w3.org/2000/svg" xmlns:xlink="http://www.w3.org/1999/xlink" x="0px" y="0px"
	 width="200px" height="31px" viewBox="0 0 200 31" enable-background="new 0 0 200 31" xml:space="preserve">
<g>
	<path fill="#1A171B" d="M75.381,9.601h6.27v1.984H73V0.014h8.365v1.983h-5.984v2.619h5.54v1.984h-5.54V9.601z"/>
	<path fill="#1A171B" d="M85.62,11.586h-2.222V0.014h2.222V11.586z"/>
	<path fill="#1A171B" d="M94.923,7.617c0,0.111,0,0.191-0.016,0.381h-5.746c0.047,1.159,0.285,2.254,1.778,2.254
		c0.809,0,1.429-0.398,1.698-1.08h2.19c-0.492,1.683-2.048,2.778-3.968,2.778c-2.429,0-3.921-1.683-3.921-4.428
		c0-2.874,1.508-4.651,3.968-4.651C92.621,2.871,94.923,3.823,94.923,7.617z M90.875,4.569c-0.984,0-1.539,0.651-1.683,1.952h3.413
		C92.51,5.268,91.907,4.569,90.875,4.569z"/>
	<path fill="#1A171B" d="M98.337,3.013v1.064c0.73-0.874,1.365-1.207,2.349-1.207c1.063,0,1.921,0.46,2.333,1.269
		c0.667-0.889,1.429-1.269,2.508-1.269c1.714,0,2.73,0.984,2.73,2.651v6.064h-2.222V5.87c0-0.682-0.461-1.111-1.206-1.111
		c-0.953,0-1.524,0.635-1.524,1.683v5.143h-2.222V5.87c0-0.682-0.46-1.111-1.207-1.111c-0.952,0-1.524,0.635-1.524,1.683v5.143
		H96.13V3.013H98.337z"/>
	<path fill="#1A171B" d="M117.545,7.617c0,0.111,0,0.191-0.016,0.381h-5.746c0.047,1.159,0.285,2.254,1.778,2.254
		c0.809,0,1.429-0.398,1.698-1.08h2.19c-0.492,1.683-2.048,2.778-3.968,2.778c-2.429,0-3.921-1.683-3.921-4.428
		c0-2.874,1.508-4.651,3.968-4.651C115.244,2.871,117.545,3.823,117.545,7.617z M113.497,4.569c-0.984,0-1.539,0.651-1.683,1.952
		h3.413C115.132,5.268,114.529,4.569,113.497,4.569z"/>
	<path fill="#1A171B" d="M121.022,3.013v1.238c0.635-0.952,1.413-1.381,2.572-1.381c1.825,0,2.873,1.079,2.873,2.968v5.746h-2.222
		V6.299c0-1.016-0.476-1.539-1.429-1.539c-1.08,0-1.794,0.667-1.794,1.683v5.143H118.8V3.013H121.022z"/>
	<path fill="#1A171B" d="M132.119,4.665h-1.238v4.666c0,0.762,0.143,0.937,0.73,0.937c0.159,0,0.285-0.016,0.508-0.047v1.556
		c-0.397,0.127-0.794,0.174-1.286,0.174c-1.46,0-2.175-0.667-2.175-2.016V4.665h-1.095V3.188h1.095V0.887h2.222v2.302h1.238V4.665z"
		/>
	<path fill="#1A171B" d="M141.262,7.474c0,2.746-1.635,4.476-4.238,4.476c-2.635,0-4.238-1.714-4.238-4.54
		c0-2.81,1.604-4.54,4.223-4.54C139.691,2.871,141.262,4.569,141.262,7.474z M135.008,7.411c0,1.635,0.81,2.746,2.016,2.746
		c1.191,0,2.016-1.111,2.016-2.714c0-1.683-0.794-2.778-2.016-2.778C135.818,4.665,135.008,5.776,135.008,7.411z"/>
	<path fill="#1A171B" d="M144.914,3.013v1.683c0.476-1.158,1.365-1.825,2.381-1.825c0.063,0,0.143,0,0.27,0.016v2.254
		c-0.302-0.047-0.461-0.064-0.699-0.064c-1.302,0-1.952,0.651-1.952,1.952v4.556h-2.222V3.013H144.914z"/>
	<path fill="#1A171B" d="M155.899,9.252l-0.778,2.334h-2.429l4.111-11.572h2.635l4,11.572h-2.444l-0.762-2.334H155.899z
		 M158.074,2.743l-1.508,4.524h3.016L158.074,2.743z"/>
	<path fill="#1A171B" d="M163.885,7.426c0-2.587,1.555-4.555,3.603-4.555c1.063,0,1.81,0.397,2.365,1.254V0.014h2.222v11.572h-2.222
		v-0.874c-0.555,0.842-1.302,1.238-2.365,1.238C165.33,11.95,163.885,9.934,163.885,7.426z M166.107,7.426
		c0,1.572,0.762,2.667,1.873,2.667s1.873-1.08,1.873-2.636c0-1.635-0.746-2.73-1.873-2.73
		C166.869,4.728,166.107,5.839,166.107,7.426z"/>
	<path fill="#1A171B" d="M173.267,7.426c0-2.587,1.555-4.555,3.603-4.555c1.063,0,1.81,0.397,2.365,1.254V0.014h2.222v11.572h-2.222
		v-0.874c-0.555,0.842-1.302,1.238-2.365,1.238C174.712,11.95,173.267,9.934,173.267,7.426z M175.489,7.426
		c0,1.572,0.762,2.667,1.873,2.667s1.873-1.08,1.873-2.636c0-1.635-0.746-2.73-1.873-2.73
		C176.251,4.728,175.489,5.839,175.489,7.426z"/>
	<path fill="#1A171B" d="M191.141,7.474c0,2.746-1.635,4.476-4.238,4.476c-2.635,0-4.238-1.714-4.238-4.54
		c0-2.81,1.603-4.54,4.223-4.54C189.57,2.871,191.141,4.569,191.141,7.474z M184.887,7.411c0,1.635,0.81,2.746,2.016,2.746
		c1.191,0,2.016-1.111,2.016-2.714c0-1.683-0.794-2.778-2.016-2.778C185.697,4.665,184.887,5.776,184.887,7.411z"/>
	<path fill="#1A171B" d="M194.555,3.013v1.238c0.635-0.952,1.413-1.381,2.572-1.381c1.825,0,2.873,1.079,2.873,2.968v5.746h-2.222
		V6.299c0-1.016-0.476-1.539-1.429-1.539c-1.079,0-1.794,0.667-1.794,1.683v5.143h-2.222V3.013H194.555z"/>
</g>
<g>
	<path fill="#1A171B" d="M73,22.959c0-0.467,0.039-0.929,0.119-1.387c0.079-0.457,0.231-0.933,0.455-1.428
		c0.224-0.495,0.502-0.927,0.834-1.296c0.331-0.368,0.78-0.675,1.345-0.917s1.202-0.365,1.912-0.365
		c2.222,0,3.535,1.112,3.936,3.334H80.27c-0.15-0.729-0.444-1.275-0.882-1.639c-0.439-0.364-1.065-0.546-1.877-0.546
		c-0.99,0-1.772,0.378-2.346,1.134c-0.575,0.757-0.861,1.788-0.861,3.096c0,1.279,0.299,2.294,0.896,3.047
		c0.597,0.751,1.405,1.127,2.423,1.127c0.84,0,1.485-0.235,1.933-0.708c0.448-0.471,0.751-1.202,0.91-2.192h1.345
		c-0.308,2.699-1.709,4.049-4.202,4.049c-0.7,0-1.328-0.119-1.884-0.357c-0.556-0.238-0.999-0.54-1.331-0.904
		s-0.607-0.792-0.826-1.281c-0.22-0.491-0.369-0.959-0.448-1.408C73.039,23.869,73,23.417,73,22.959z"/>
	<path fill="#1A171B" d="M86.181,20.396c1.055,0,1.874,0.348,2.458,1.044c0.584,0.695,0.875,1.678,0.875,2.948
		c0,1.205-0.296,2.152-0.89,2.843c-0.593,0.691-1.403,1.037-2.43,1.037c-1.046,0-1.861-0.348-2.444-1.044
		c-0.584-0.696-0.875-1.66-0.875-2.893c0-1.232,0.294-2.197,0.882-2.892C84.346,20.744,85.154,20.396,86.181,20.396z M86.195,21.475
		c-0.654,0-1.168,0.254-1.541,0.763c-0.373,0.509-0.56,1.207-0.56,2.094c0,0.887,0.186,1.586,0.56,2.095
		c0.373,0.509,0.887,0.763,1.541,0.763c0.644,0,1.155-0.254,1.533-0.763c0.378-0.509,0.568-1.193,0.568-2.053
		c0-0.906-0.185-1.615-0.554-2.128C87.374,21.732,86.857,21.475,86.195,21.475z"/>
	<path fill="#1A171B" d="M90.859,20.607h1.079v1.036c0.317-0.439,0.651-0.756,1.001-0.952c0.35-0.196,0.768-0.295,1.254-0.295
		c0.906,0,1.564,0.374,1.975,1.121c0.346-0.41,0.687-0.7,1.023-0.868c0.336-0.169,0.747-0.253,1.232-0.253
		c0.682,0,1.207,0.175,1.576,0.525c0.369,0.35,0.554,0.857,0.554,1.52v5.504h-1.177v-5.057c0-0.467-0.119-0.828-0.357-1.085
		s-0.572-0.386-1.002-0.386c-0.476,0-0.882,0.187-1.218,0.561c-0.337,0.374-0.504,0.826-0.504,1.359v4.608h-1.177v-5.057
		c0-0.467-0.119-0.828-0.357-1.085c-0.238-0.257-0.572-0.386-1.002-0.386c-0.476,0-0.882,0.187-1.218,0.561
		c-0.336,0.374-0.504,0.826-0.504,1.359v4.608h-1.177V20.607z"/>
	<path fill="#1A171B" d="M102.164,31V20.607h1.078v1.106c0.551-0.877,1.331-1.317,2.34-1.317c0.971,0,1.739,0.36,2.304,1.079
		c0.565,0.72,0.848,1.694,0.848,2.927c0,1.167-0.287,2.104-0.862,2.809c-0.574,0.705-1.333,1.058-2.276,1.058
		c-0.906,0-1.657-0.365-2.255-1.093V31H102.164z M105.385,21.488c-0.616,0-1.111,0.259-1.485,0.778
		c-0.373,0.518-0.56,1.207-0.56,2.066c0,0.86,0.187,1.548,0.56,2.066c0.373,0.518,0.869,0.777,1.485,0.777
		c0.635,0,1.149-0.259,1.541-0.777s0.588-1.193,0.588-2.025c0-0.877-0.194-1.578-0.581-2.101
		C106.545,21.75,106.03,21.488,105.385,21.488z"/>
	<path fill="#1A171B" d="M113.005,20.396c1.055,0,1.874,0.348,2.458,1.044c0.584,0.695,0.875,1.678,0.875,2.948
		c0,1.205-0.296,2.152-0.89,2.843c-0.593,0.691-1.403,1.037-2.43,1.037c-1.046,0-1.861-0.348-2.444-1.044
		c-0.584-0.696-0.875-1.66-0.875-2.893c0-1.232,0.294-2.197,0.882-2.892C111.17,20.744,111.978,20.396,113.005,20.396z
		 M113.019,21.475c-0.654,0-1.168,0.254-1.541,0.763c-0.373,0.509-0.56,1.207-0.56,2.094c0,0.887,0.186,1.586,0.56,2.095
		c0.373,0.509,0.887,0.763,1.541,0.763c0.644,0,1.155-0.254,1.533-0.763c0.378-0.509,0.568-1.193,0.568-2.053
		c0-0.906-0.185-1.615-0.554-2.128C114.198,21.732,113.682,21.475,113.019,21.475z"/>
	<path fill="#1A171B" d="M117.683,20.607h1.079v1.232c0.326-0.513,0.679-0.882,1.057-1.106c0.378-0.224,0.838-0.337,1.38-0.337
		c0.709,0,1.275,0.182,1.695,0.546c0.42,0.365,0.631,0.85,0.631,1.457v5.546h-1.163v-5.084c0-0.44-0.135-0.79-0.406-1.051
		c-0.271-0.262-0.64-0.393-1.107-0.393c-0.598,0-1.078,0.227-1.443,0.679c-0.364,0.453-0.546,1.053-0.546,1.8v4.048h-1.177V20.607z"
		/>
	<path fill="#1A171B" d="M131.467,24.668h-5.407c0.01,0.672,0.14,1.196,0.393,1.569c0.401,0.636,0.989,0.953,1.765,0.953
		c0.953,0,1.592-0.491,1.919-1.471h1.176c-0.149,0.803-0.499,1.429-1.051,1.877c-0.551,0.449-1.247,0.673-2.087,0.673
		c-1.027,0-1.84-0.348-2.437-1.044c-0.598-0.696-0.896-1.646-0.896-2.851s0.305-2.169,0.917-2.892
		c0.611-0.724,1.426-1.086,2.444-1.086c0.691,0,1.3,0.173,1.828,0.519c0.527,0.345,0.908,0.817,1.141,1.414
		C131.369,22.843,131.467,23.622,131.467,24.668z M126.088,23.716h4.118c0.009-0.019,0.014-0.047,0.014-0.085
		c0-0.606-0.196-1.118-0.588-1.534c-0.392-0.415-0.873-0.623-1.443-0.623c-0.588,0-1.074,0.203-1.457,0.609
		C126.35,22.491,126.135,23.034,126.088,23.716z"/>
	<path fill="#1A171B" d="M132.77,20.607h1.079v1.232c0.326-0.513,0.679-0.882,1.057-1.106c0.378-0.224,0.838-0.337,1.38-0.337
		c0.709,0,1.275,0.182,1.695,0.546c0.42,0.365,0.631,0.85,0.631,1.457v5.546h-1.163v-5.084c0-0.44-0.135-0.79-0.406-1.051
		c-0.271-0.262-0.64-0.393-1.107-0.393c-0.598,0-1.078,0.227-1.443,0.679c-0.364,0.453-0.546,1.053-0.546,1.8v4.048h-1.177V20.607z"
		/>
	<path fill="#1A171B" d="M143.136,20.607v0.952h-1.205v5.028c0,0.262,0.044,0.437,0.133,0.525c0.088,0.089,0.259,0.133,0.511,0.133
		c0.233,0,0.42-0.018,0.56-0.056v0.98c-0.364,0.066-0.682,0.098-0.953,0.098c-0.458,0-0.808-0.101-1.051-0.302
		c-0.243-0.201-0.364-0.488-0.364-0.861v-5.547h-0.994v-0.952h0.994v-2.017h1.163v2.017H143.136z"/>
	<path fill="#1A171B" d="M145.041,25.761c0.056,0.44,0.207,0.787,0.455,1.043c0.248,0.257,0.694,0.386,1.338,0.386
		c0.513,0,0.927-0.105,1.24-0.316c0.313-0.21,0.469-0.488,0.469-0.834c0-0.271-0.089-0.485-0.266-0.644
		c-0.177-0.159-0.467-0.285-0.868-0.378l-1.093-0.266c-0.868-0.205-1.473-0.464-1.814-0.777c-0.341-0.313-0.511-0.759-0.511-1.338
		c0-0.682,0.257-1.226,0.77-1.632c0.514-0.406,1.196-0.609,2.045-0.609c0.849,0,1.503,0.196,1.961,0.588
		c0.458,0.392,0.691,0.948,0.7,1.667h-1.232c-0.028-0.784-0.518-1.176-1.471-1.176c-0.476,0-0.854,0.1-1.134,0.301
		c-0.28,0.201-0.42,0.47-0.42,0.805c0,0.262,0.108,0.474,0.322,0.637c0.215,0.164,0.56,0.301,1.036,0.413l1.121,0.266
		c0.728,0.178,1.256,0.428,1.583,0.75c0.327,0.322,0.49,0.754,0.49,1.296c0,0.709-0.273,1.275-0.819,1.694
		c-0.546,0.42-1.282,0.631-2.206,0.631c-1.896,0-2.872-0.836-2.928-2.508H145.041z"/>
</g>
<rect y="0.014" width="5.53" height="27.651"/>
<path d="M63.81,21.321c-0.425,1.544-1.107,2.814-2.047,3.81c-0.939,0.996-2.059,1.723-3.356,2.181C57.108,27.771,55.676,28,54.11,28
	c-2.238,0-4.173-0.453-5.807-1.359c-1.634-0.906-2.886-2.21-3.759-3.911c-0.873-1.7-1.309-3.747-1.309-6.142
	c0-2.394,0.437-4.441,1.309-6.142c0.873-1.7,2.125-3.004,3.759-3.911c1.634-0.906,3.558-1.359,5.774-1.359
	c1.543,0,2.965,0.218,4.262,0.654c1.298,0.436,2.395,1.102,3.289,1.997s1.532,2.047,1.913,3.457l-5.068,2.047
	c-0.314-1.387-0.822-2.338-1.527-2.853c-0.705-0.514-1.594-0.772-2.668-0.772c-1.052,0-1.964,0.258-2.736,0.772
	c-0.772,0.515-1.365,1.281-1.779,2.299c-0.414,1.018-0.621,2.288-0.621,3.809c0,1.5,0.19,2.764,0.571,3.793
	c0.38,1.03,0.956,1.802,1.728,2.316c0.772,0.515,1.728,0.772,2.87,0.772c1.074,0,1.985-0.296,2.736-0.89
	c0.749-0.592,1.258-1.504,1.527-2.735L63.81,21.321z"/>
<path d="M34.579,5.512h-6.914V0H11.06v5.53h16.598l-1.949,5.544H11.06v5.53h12.705l-1.944,5.53H11.06v5.53h8.817h1.981v-5.533h5.544
	h0.467h6.838l1.684,5.533h5.941L34.579,5.512z M28.623,18.204l1.492-4.804l0.907-3.457h0.067l0.973,3.491l1.451,4.77H28.623z"/>
</svg>
