<?xml version="1.0" encoding="utf-8"?>
<!-- Generator: Adobe Illustrator 26.0.0, SVG Export Plug-In . SVG Version: 6.00 Build 0)  -->
<svg version="1.1" id="Calque_1" xmlns="http://www.w3.org/2000/svg" xmlns:xlink="http://www.w3.org/1999/xlink" x="0px" y="0px"
	 width="200px" height="56px" viewBox="0 0 200 56" enable-background="new 0 0 200 56" xml:space="preserve">
<g>
	<g>
		<path fill="#1A171B" d="M61.858,23.53v-9.296h6.733v1.296h-5.226v2.676h4.084v1.267h-4.084v2.761h5.422v1.296H61.858z"/>
		<path fill="#1A171B" d="M72.322,22.234h5.127v1.296h-6.634v-9.296h1.507V22.234z"/>
		<path fill="#1A171B" d="M79.253,23.53v-9.296h6.733v1.296H80.76v2.676h4.084v1.267H80.76v2.761h5.422v1.296H79.253z"/>
		<path fill="#1A171B" d="M97.717,14.234v9.296h-1.395V18.15l0.113-2.563h-0.014L93.59,23.53h-1.254l-2.831-7.944h-0.014
			l0.112,2.563v5.381H88.21v-9.296h2.239l1.874,5.381l0.647,2.212h0.028l0.662-2.212l1.859-5.381H97.717z"/>
		<path fill="#1A171B" d="M100.478,23.53v-9.296h6.733v1.296h-5.226v2.676h4.084v1.267h-4.084v2.761h5.422v1.296H100.478z"/>
		<path fill="#1A171B" d="M117.056,14.234v9.296h-1.789l-3.592-5.859l-0.901-1.648h-0.014l0.056,1.507v6h-1.38v-9.296h1.774
			l3.578,5.845l0.915,1.676h0.015l-0.057-1.521v-6H117.056z"/>
		<path fill="#1A171B" d="M126.717,14.234v1.296h-3.183v8h-1.507v-8h-3.183v-1.296H126.717z"/>
		<path fill="#1A171B" d="M132.056,14.094c0.901,0,1.681,0.193,2.338,0.577c0.657,0.385,1.164,0.935,1.521,1.648
			c0.357,0.714,0.535,1.568,0.535,2.563c0,0.996-0.179,1.85-0.535,2.564c-0.357,0.713-0.864,1.263-1.521,1.648
			c-0.657,0.385-1.437,0.578-2.338,0.578c-0.892,0-1.667-0.193-2.324-0.578c-0.658-0.385-1.165-0.934-1.522-1.648
			c-0.357-0.714-0.535-1.568-0.535-2.564c0-0.995,0.179-1.85,0.535-2.563c0.357-0.713,0.864-1.263,1.522-1.648
			C130.389,14.286,131.164,14.094,132.056,14.094z M132.056,15.403c-0.583,0-1.083,0.137-1.5,0.409
			c-0.418,0.272-0.739,0.667-0.965,1.183c-0.225,0.517-0.338,1.146-0.338,1.887c0,0.732,0.113,1.359,0.338,1.88
			c0.226,0.521,0.547,0.918,0.965,1.19c0.418,0.272,0.918,0.408,1.5,0.408c0.591,0,1.096-0.136,1.514-0.408
			c0.418-0.272,0.74-0.669,0.965-1.19c0.226-0.521,0.338-1.148,0.338-1.88c0-0.742-0.112-1.371-0.338-1.887
			c-0.225-0.516-0.547-0.911-0.965-1.183C133.152,15.54,132.647,15.403,132.056,15.403z"/>
		<path fill="#1A171B" d="M142.478,14.234c0.995,0,1.787,0.249,2.374,0.747c0.587,0.498,0.88,1.169,0.88,2.014
			c0,0.873-0.294,1.547-0.88,2.021c-0.587,0.474-1.378,0.711-2.374,0.711l-0.141,0.084h-2.155v3.718h-1.493v-9.296H142.478z
			 M142.366,18.558c0.61,0,1.063-0.124,1.359-0.373c0.296-0.249,0.444-0.631,0.444-1.148c0-0.507-0.148-0.887-0.444-1.141
			c-0.296-0.253-0.749-0.38-1.359-0.38h-2.183v3.042H142.366z M143.253,18.868l3.028,4.662h-1.732l-2.592-4.07L143.253,18.868z"/>
		<path fill="#1A171B" d="M151.141,23.53l3.506-9.296h1.803l3.507,9.296h-1.592l-2.394-6.648l-0.422-1.338h-0.042l-0.395,1.31
			l-2.422,6.676H151.141z M153.013,21.094v-1.226h5.028v1.226H153.013z"/>
		<path fill="#1A171B" d="M164.886,14.234c1.456,0,2.59,0.402,3.401,1.205c0.812,0.803,1.218,1.951,1.218,3.444
			s-0.406,2.641-1.218,3.444c-0.812,0.803-1.945,1.204-3.401,1.204h-3.281v-9.296H164.886z M164.886,22.249
			c0.986,0,1.74-0.293,2.261-0.88c0.522-0.587,0.782-1.416,0.782-2.486s-0.26-1.899-0.782-2.486c-0.521-0.587-1.274-0.88-2.261-0.88
			h-1.774v6.732H164.886z"/>
		<path fill="#1A171B" d="M175.027,14.234c1.456,0,2.59,0.402,3.401,1.205c0.813,0.803,1.218,1.951,1.218,3.444
			s-0.406,2.641-1.218,3.444c-0.812,0.803-1.945,1.204-3.401,1.204h-3.281v-9.296H175.027z M175.027,22.249
			c0.986,0,1.74-0.293,2.261-0.88c0.522-0.587,0.782-1.416,0.782-2.486s-0.26-1.899-0.782-2.486c-0.521-0.587-1.274-0.88-2.261-0.88
			h-1.774v6.732H175.027z"/>
		<path fill="#1A171B" d="M185.746,14.094c0.901,0,1.681,0.193,2.338,0.577c0.657,0.385,1.164,0.935,1.521,1.648
			c0.357,0.714,0.535,1.568,0.535,2.563c0,0.996-0.179,1.85-0.535,2.564c-0.357,0.713-0.864,1.263-1.521,1.648
			c-0.657,0.385-1.437,0.578-2.338,0.578c-0.892,0-1.667-0.193-2.324-0.578c-0.658-0.385-1.165-0.934-1.522-1.648
			c-0.357-0.714-0.535-1.568-0.535-2.564c0-0.995,0.179-1.85,0.535-2.563c0.357-0.713,0.864-1.263,1.522-1.648
			C184.079,14.286,184.854,14.094,185.746,14.094z M185.746,15.403c-0.583,0-1.083,0.137-1.5,0.409
			c-0.418,0.272-0.739,0.667-0.965,1.183c-0.225,0.517-0.338,1.146-0.338,1.887c0,0.732,0.113,1.359,0.338,1.88
			c0.226,0.521,0.547,0.918,0.965,1.19c0.418,0.272,0.918,0.408,1.5,0.408c0.591,0,1.096-0.136,1.514-0.408
			c0.418-0.272,0.74-0.669,0.965-1.19c0.226-0.521,0.338-1.148,0.338-1.88c0-0.742-0.112-1.371-0.338-1.887
			c-0.225-0.516-0.547-0.911-0.965-1.183C186.843,15.54,186.338,15.403,185.746,15.403z"/>
		<path fill="#1A171B" d="M200,14.234v9.296h-1.789l-3.592-5.859l-0.901-1.648h-0.014l0.056,1.507v6h-1.38v-9.296h1.774l3.578,5.845
			l0.915,1.676h0.015l-0.057-1.521v-6H200z"/>
	</g>
	<g>
		<path fill="#1A171B" d="M78.568,36.688c-0.165,0.602-0.431,1.096-0.798,1.485c-0.365,0.388-0.802,0.672-1.308,0.85
			c-0.506,0.179-1.064,0.268-1.674,0.268c-0.871,0-1.626-0.176-2.263-0.53c-0.637-0.353-1.125-0.861-1.465-1.524
			c-0.34-0.662-0.51-1.46-0.51-2.393c0-0.933,0.17-1.731,0.51-2.393c0.34-0.663,0.828-1.171,1.465-1.524
			c0.637-0.353,1.386-0.53,2.25-0.53c0.601,0,1.155,0.085,1.66,0.255c0.506,0.17,0.933,0.43,1.282,0.778
			c0.349,0.349,0.597,0.798,0.746,1.347l-1.975,0.798c-0.123-0.541-0.32-0.911-0.595-1.112c-0.275-0.201-0.621-0.301-1.039-0.301
			c-0.411,0-0.765,0.1-1.066,0.301c-0.301,0.2-0.533,0.499-0.694,0.896c-0.161,0.397-0.242,0.892-0.242,1.485
			c0,0.584,0.074,1.077,0.222,1.478c0.148,0.401,0.373,0.702,0.674,0.902c0.301,0.2,0.673,0.301,1.118,0.301
			c0.419,0,0.773-0.115,1.066-0.347c0.292-0.231,0.49-0.586,0.595-1.065L78.568,36.688z"/>
		<path fill="#1A171B" d="M82.779,32.49c0.689,0,1.293,0.133,1.812,0.399c0.519,0.266,0.925,0.654,1.216,1.164
			c0.292,0.51,0.438,1.123,0.438,1.838c0,0.715-0.146,1.327-0.438,1.838c-0.292,0.51-0.698,0.898-1.216,1.164
			c-0.519,0.266-1.123,0.399-1.812,0.399c-0.671,0-1.268-0.133-1.791-0.399c-0.524-0.266-0.931-0.654-1.223-1.164
			c-0.293-0.51-0.438-1.122-0.438-1.838c0-0.715,0.145-1.327,0.438-1.838c0.292-0.51,0.7-0.898,1.223-1.164
			C81.511,32.623,82.108,32.49,82.779,32.49z M82.779,34.072c-0.253,0-0.471,0.061-0.653,0.183
			c-0.184,0.122-0.323,0.318-0.419,0.589c-0.096,0.27-0.144,0.619-0.144,1.046c0,0.427,0.048,0.774,0.144,1.04
			c0.095,0.266,0.235,0.462,0.419,0.589c0.183,0.126,0.401,0.19,0.653,0.19c0.262,0,0.484-0.063,0.667-0.19
			c0.184-0.126,0.322-0.323,0.419-0.589c0.096-0.266,0.144-0.613,0.144-1.04c0-0.427-0.048-0.776-0.144-1.046
			s-0.235-0.466-0.419-0.589C83.263,34.134,83.041,34.072,82.779,34.072z"/>
		<path fill="#1A171B" d="M87.501,39.16v-6.539h1.988l0.066,1.269c0.209-0.462,0.504-0.811,0.883-1.046
			c0.379-0.236,0.817-0.353,1.314-0.353c0.488,0,0.912,0.109,1.269,0.327c0.357,0.218,0.623,0.541,0.798,0.968
			c0.14-0.288,0.32-0.528,0.542-0.72c0.222-0.192,0.477-0.336,0.765-0.431s0.584-0.144,0.889-0.144c0.436,0,0.819,0.085,1.151,0.255
			c0.331,0.17,0.596,0.427,0.798,0.772c0.2,0.344,0.296,0.774,0.287,1.288l-0.026,4.355h-2.198v-3.845
			c0-0.419-0.081-0.711-0.242-0.876c-0.161-0.166-0.377-0.249-0.647-0.249c-0.218,0-0.417,0.055-0.594,0.164
			c-0.179,0.109-0.316,0.273-0.413,0.49c-0.096,0.218-0.143,0.493-0.143,0.824v3.492h-2.223v-3.845c0-0.419-0.084-0.711-0.249-0.876
			c-0.166-0.166-0.379-0.249-0.641-0.249c-0.201,0-0.391,0.052-0.57,0.157s-0.32,0.268-0.424,0.491
			c-0.105,0.222-0.157,0.512-0.157,0.869v3.453H87.501z"/>
		<path fill="#1A171B" d="M99.808,41.906v-9.286h2.001l0.118,2.367l-0.262-0.275c0.061-0.436,0.196-0.819,0.406-1.151
			c0.209-0.331,0.479-0.593,0.811-0.785c0.332-0.192,0.711-0.287,1.138-0.287c0.541,0,1.012,0.133,1.413,0.399
			c0.401,0.266,0.713,0.649,0.935,1.151c0.222,0.502,0.333,1.11,0.333,1.824c0,0.715-0.113,1.33-0.34,1.844
			c-0.227,0.514-0.542,0.907-0.948,1.177c-0.405,0.27-0.878,0.405-1.419,0.405c-0.593,0-1.073-0.176-1.438-0.53
			c-0.366-0.353-0.611-0.8-0.733-1.341l0.209-0.314v4.8H99.808z M103.235,37.656c0.383,0,0.684-0.141,0.902-0.425
			c0.218-0.283,0.327-0.73,0.327-1.341c0-0.61-0.107-1.057-0.32-1.341c-0.214-0.283-0.512-0.425-0.896-0.425
			c-0.244,0-0.458,0.067-0.641,0.202c-0.184,0.136-0.325,0.334-0.425,0.595c-0.1,0.261-0.15,0.584-0.15,0.968
			c0,0.366,0.046,0.682,0.138,0.948c0.091,0.266,0.229,0.469,0.412,0.608C102.765,37.586,102.982,37.656,103.235,37.656z"/>
		<path fill="#1A171B" d="M111.12,32.49c0.689,0,1.293,0.133,1.812,0.399c0.519,0.266,0.925,0.654,1.216,1.164
			c0.292,0.51,0.438,1.123,0.438,1.838c0,0.715-0.146,1.327-0.438,1.838c-0.292,0.51-0.698,0.898-1.216,1.164
			c-0.519,0.266-1.123,0.399-1.812,0.399c-0.671,0-1.268-0.133-1.791-0.399c-0.524-0.266-0.931-0.654-1.223-1.164
			c-0.293-0.51-0.438-1.122-0.438-1.838c0-0.715,0.145-1.327,0.438-1.838c0.292-0.51,0.7-0.898,1.223-1.164
			C109.852,32.623,110.449,32.49,111.12,32.49z M111.12,34.072c-0.252,0-0.471,0.061-0.653,0.183
			c-0.184,0.122-0.323,0.318-0.419,0.589c-0.096,0.27-0.144,0.619-0.144,1.046c0,0.427,0.048,0.774,0.144,1.04
			c0.095,0.266,0.235,0.462,0.419,0.589c0.183,0.126,0.401,0.19,0.653,0.19c0.262,0,0.484-0.063,0.667-0.19
			c0.184-0.126,0.322-0.323,0.419-0.589c0.096-0.266,0.144-0.613,0.144-1.04c0-0.427-0.048-0.776-0.144-1.046
			c-0.096-0.27-0.235-0.466-0.419-0.589C111.605,34.134,111.383,34.072,111.12,34.072z"/>
		<path fill="#1A171B" d="M115.842,39.16v-6.539h1.988l0.118,2.249l-0.249-0.249c0.087-0.471,0.243-0.863,0.465-1.177
			s0.501-0.551,0.837-0.713c0.335-0.161,0.712-0.242,1.131-0.242c0.454,0,0.848,0.087,1.184,0.261
			c0.336,0.175,0.599,0.432,0.791,0.772c0.193,0.34,0.288,0.767,0.288,1.282v4.355h-2.223v-3.767c0-0.453-0.087-0.767-0.261-0.942
			c-0.175-0.174-0.397-0.261-0.667-0.261c-0.209,0-0.406,0.05-0.589,0.15c-0.183,0.1-0.327,0.259-0.431,0.477
			c-0.105,0.218-0.157,0.51-0.157,0.876v3.466H115.842z"/>
		<path fill="#1A171B" d="M125.259,38.892c-0.532-0.266-0.937-0.654-1.216-1.164c-0.279-0.51-0.419-1.122-0.419-1.838
			c0-0.706,0.141-1.317,0.425-1.831c0.283-0.514,0.682-0.905,1.197-1.171c0.514-0.266,1.111-0.399,1.792-0.399
			c0.68,0,1.26,0.133,1.739,0.399c0.479,0.266,0.85,0.632,1.112,1.098c0.261,0.467,0.392,1.001,0.392,1.602
			c0,0.157-0.005,0.311-0.013,0.464c-0.009,0.153-0.023,0.285-0.039,0.399h-5.18v-1.204h4.212l-1.073,0.576
			c0.018-0.584-0.068-1.027-0.254-1.327c-0.188-0.301-0.486-0.451-0.896-0.451c-0.288,0-0.528,0.065-0.719,0.196
			c-0.193,0.131-0.339,0.336-0.438,0.615c-0.101,0.279-0.151,0.632-0.151,1.059c0,0.436,0.055,0.785,0.164,1.046
			c0.109,0.262,0.268,0.453,0.477,0.576c0.209,0.122,0.466,0.183,0.771,0.183c0.314,0,0.571-0.063,0.772-0.19
			c0.2-0.126,0.353-0.311,0.457-0.556l1.779,0.601c-0.183,0.532-0.551,0.951-1.105,1.256c-0.554,0.306-1.193,0.458-1.916,0.458
			C126.415,39.291,125.791,39.158,125.259,38.892z"/>
		<path fill="#1A171B" d="M131.524,39.16v-6.539h1.988l0.118,2.249l-0.249-0.249c0.087-0.471,0.243-0.863,0.465-1.177
			s0.501-0.551,0.837-0.713c0.335-0.161,0.712-0.242,1.131-0.242c0.454,0,0.848,0.087,1.184,0.261
			c0.336,0.175,0.599,0.432,0.791,0.772c0.193,0.34,0.288,0.767,0.288,1.282v4.355h-2.223v-3.767c0-0.453-0.087-0.767-0.261-0.942
			c-0.175-0.174-0.397-0.261-0.667-0.261c-0.209,0-0.406,0.05-0.589,0.15c-0.183,0.1-0.327,0.259-0.431,0.477
			c-0.105,0.218-0.157,0.51-0.157,0.876v3.466H131.524z"/>
		<path fill="#1A171B" d="M144.276,32.621v1.583h-5.298v-1.583H144.276z M142.327,30.541v6.291c0,0.314,0.077,0.538,0.229,0.673
			c0.152,0.135,0.365,0.203,0.635,0.203c0.209,0,0.39-0.024,0.542-0.072c0.152-0.048,0.29-0.119,0.413-0.216l0.235,1.373
			c-0.218,0.157-0.492,0.279-0.823,0.366c-0.332,0.087-0.672,0.131-1.021,0.131c-0.497,0-0.926-0.07-1.288-0.209
			c-0.362-0.139-0.641-0.362-0.837-0.667c-0.197-0.305-0.299-0.71-0.308-1.216v-6.042L142.327,30.541z"/>
		<path fill="#1A171B" d="M146.224,38.97c-0.558-0.214-1.025-0.521-1.4-0.922l1.046-1.23c0.236,0.297,0.534,0.534,0.896,0.713
			c0.362,0.179,0.757,0.268,1.184,0.268c0.288,0,0.517-0.041,0.687-0.124c0.17-0.083,0.255-0.202,0.255-0.36
			c0-0.122-0.046-0.223-0.138-0.301c-0.091-0.079-0.264-0.144-0.517-0.196l-0.903-0.17c-0.819-0.166-1.406-0.41-1.759-0.732
			c-0.353-0.322-0.53-0.754-0.53-1.295c0-0.366,0.115-0.713,0.347-1.039c0.231-0.327,0.577-0.59,1.039-0.791
			c0.462-0.2,1.029-0.301,1.7-0.301c0.663,0,1.245,0.096,1.747,0.287c0.501,0.192,0.909,0.471,1.222,0.837l-1.072,1.204
			c-0.209-0.253-0.48-0.455-0.812-0.608c-0.331-0.153-0.667-0.229-1.007-0.229c-0.2,0-0.372,0.02-0.517,0.059
			c-0.143,0.039-0.251,0.096-0.32,0.17c-0.07,0.074-0.104,0.159-0.104,0.255c0,0.122,0.059,0.224,0.177,0.308
			c0.117,0.083,0.315,0.15,0.594,0.202l1.191,0.236c0.653,0.122,1.133,0.34,1.438,0.654c0.305,0.314,0.458,0.711,0.458,1.19
			c0,0.654-0.264,1.19-0.792,1.608c-0.528,0.419-1.288,0.628-2.281,0.628C147.392,39.291,146.782,39.184,146.224,38.97z"/>
	</g>
</g>
<g>
	<path d="M53.563,24.712c-1.731-1.731-3.748-3.073-5.944-3.983c0.103-0.791,0.174-1.59,0.174-2.401c0-4.896-1.906-9.499-5.368-12.96
		C38.964,1.907,34.361,0,29.465,0s-9.498,1.906-12.96,5.368c-3.462,3.461-5.369,8.064-5.369,12.96c0,0.811,0.071,1.609,0.174,2.4
		c-2.196,0.909-4.212,2.251-5.943,3.983C1.907,28.173,0,32.776,0,37.672c0,4.895,1.906,9.498,5.368,12.96
		C8.83,54.094,13.433,56,18.328,56c4.084,0,7.953-1.343,11.137-3.792C32.649,54.657,36.519,56,40.602,56
		c4.896,0,9.499-1.907,12.961-5.369c3.461-3.461,5.367-8.064,5.367-12.959C58.93,32.776,57.025,28.173,53.563,24.712z M17.557,6.419
		c3.181-3.181,7.41-4.933,11.909-4.933c4.499,0,8.728,1.752,11.909,4.933c3.181,3.181,4.932,7.41,4.932,11.909
		c0,0.637-0.044,1.267-0.114,1.891c-1.387-0.443-2.834-0.706-4.314-0.807c0.031-0.359,0.052-0.72,0.052-1.084
		c0-3.33-1.297-6.461-3.651-8.815c-2.354-2.354-5.485-3.651-8.815-3.651s-6.461,1.297-8.815,3.651
		c-2.354,2.354-3.651,5.485-3.651,8.815c0,0.364,0.021,0.724,0.052,1.084c-1.48,0.102-2.927,0.365-4.314,0.807
		c-0.069-0.624-0.114-1.254-0.114-1.891C12.624,13.83,14.376,9.6,17.557,6.419z M32.839,45.436
		c-1.209-1.209-2.131-2.713-2.667-4.348l-0.707-2.157l-0.707,2.157c-0.535,1.635-1.457,3.138-2.667,4.348
		c-2.074,2.074-4.831,3.216-7.764,3.216c-2.933,0-5.69-1.142-7.764-3.216c-2.074-2.074-3.216-4.831-3.216-7.764
		c0-2.933,1.142-5.69,3.216-7.764c2.616-2.616,6.346-3.774,10.091-2.963l2.273,0.49l-1.567-1.718
		c-1.855-2.033-2.876-4.657-2.876-7.389c0-2.933,1.142-5.69,3.216-7.764c2.074-2.074,4.831-3.216,7.764-3.216
		c2.933,0,5.69,1.142,7.764,3.216c2.074,2.073,3.216,4.83,3.216,7.764c0,2.732-1.021,5.356-2.876,7.389l-1.568,1.718l2.274-0.491
		c3.741-0.809,7.474,0.347,10.091,2.964c2.073,2.073,3.215,4.83,3.215,7.764c0,2.933-1.142,5.69-3.215,7.764
		c-2.074,2.074-4.831,3.216-7.764,3.216C37.669,48.652,34.912,47.509,32.839,45.436z M19.096,25.23
		c-1.62-0.102-3.202,0.124-4.688,0.616c-0.655-1.307-1.149-2.689-1.442-4.131c1.379-0.462,2.824-0.736,4.304-0.829
		C17.596,22.433,18.211,23.907,19.096,25.23z M39.835,25.23c0.884-1.323,1.499-2.797,1.825-4.344c1.48,0.093,2.925,0.367,4.304,0.83
		c-0.293,1.441-0.787,2.822-1.441,4.128C43.039,25.352,41.458,25.126,39.835,25.23z M18.328,54.513
		c-4.498,0-8.727-1.752-11.909-4.933c-3.181-3.182-4.933-7.41-4.933-11.909c0-4.499,1.752-8.729,4.933-11.909
		c1.507-1.507,3.254-2.681,5.149-3.512c0.313,1.442,0.807,2.829,1.452,4.146c-1.285,0.607-2.474,1.426-3.508,2.459
		c-2.354,2.354-3.651,5.485-3.651,8.815c0,3.33,1.297,6.461,3.651,8.815c2.354,2.354,5.485,3.651,8.815,3.651
		c2.576,0,5.027-0.783,7.098-2.225c0.647,0.963,1.378,1.879,2.217,2.718c0.21,0.21,0.436,0.395,0.654,0.594
		C25.422,53.349,21.969,54.513,18.328,54.513z M29.465,50.281c-0.26-0.23-0.524-0.453-0.772-0.7c-0.799-0.799-1.491-1.673-2.1-2.595
		c0.185-0.164,0.374-0.323,0.55-0.499c0.938-0.938,1.724-2.032,2.322-3.223c0.598,1.191,1.384,2.284,2.322,3.223
		c0.176,0.176,0.365,0.335,0.55,0.499c-0.609,0.921-1.301,1.795-2.1,2.594C29.99,49.828,29.725,50.051,29.465,50.281z M52.512,49.58
		c-3.182,3.181-7.411,4.933-11.91,4.933c-3.64,0-7.094-1.165-9.969-3.288c0.218-0.198,0.445-0.384,0.655-0.594
		c0.839-0.839,1.569-1.755,2.217-2.718c2.07,1.441,4.522,2.225,7.097,2.225c3.33,0,6.46-1.297,8.815-3.651
		c2.354-2.354,3.651-5.485,3.651-8.815c0-3.331-1.297-6.461-3.651-8.815c-1.034-1.034-2.223-1.854-3.507-2.461
		c0.645-1.317,1.138-2.704,1.451-4.144c1.895,0.831,3.643,2.005,5.15,3.512c3.181,3.18,4.932,7.409,4.932,11.909
		C57.444,42.17,55.693,46.4,52.512,49.58z"/>
	<path d="M27.139,29.056l-2.276-0.492l1.569,1.72c1.062,1.164,1.845,2.501,2.327,3.972l0.707,2.158l0.707-2.158
		c0.482-1.471,1.264-2.808,2.326-3.972l1.568-1.719l-2.275,0.492C30.24,29.39,28.69,29.39,27.139,29.056z M29.465,32.08
		c-0.227-0.451-0.483-0.888-0.765-1.31c0.511,0.032,1.018,0.032,1.53,0C29.948,31.192,29.693,31.629,29.465,32.08z"/>
</g>
<path d="M25.141,23.744V12.912h8.436v2.183h-5.613v2.199h4.464v2.052h-4.464v2.216h5.826v2.183H25.141z"/>
<path d="M12.838,43.088l3.808-10.832h3.381l3.791,10.832h-2.905l-2.117-6.959l-0.476-1.707h-0.033l-0.443,1.691l-2.166,6.975H12.838
	z M15.316,40.642v-1.92h6.024v1.92H15.316z"/>
<path d="M45.633,39.986c-0.208,0.755-0.542,1.376-1.001,1.863c-0.459,0.487-1.007,0.843-1.641,1.067
	c-0.635,0.224-1.335,0.336-2.101,0.336c-1.094,0-2.041-0.222-2.84-0.665s-1.411-1.08-1.838-1.912
	c-0.427-0.831-0.64-1.832-0.64-3.004c0-1.171,0.214-2.172,0.64-3.003c0.427-0.831,1.039-1.469,1.838-1.912s1.74-0.665,2.823-0.665
	c0.755,0,1.45,0.106,2.084,0.32c0.635,0.213,1.171,0.539,1.609,0.977c0.438,0.438,0.749,1.001,0.936,1.69l-2.478,1.001
	c-0.153-0.678-0.402-1.143-0.747-1.395c-0.345-0.252-0.78-0.378-1.305-0.378c-0.515,0-0.96,0.126-1.338,0.378
	c-0.378,0.252-0.667,0.627-0.87,1.124c-0.203,0.498-0.304,1.119-0.304,1.863c0,0.733,0.093,1.351,0.279,1.855
	c0.186,0.503,0.468,0.881,0.845,1.133c0.378,0.252,0.845,0.378,1.403,0.378c0.525,0,0.971-0.145,1.338-0.435
	c0.366-0.29,0.615-0.736,0.747-1.337L45.633,39.986z"/>
</svg>
