<?xml version="1.0" encoding="utf-8"?>
<!-- Generator: Adobe Illustrator 26.0.0, SVG Export Plug-In . SVG Version: 6.00 Build 0)  -->
<svg version="1.1" id="Calque_1" xmlns="http://www.w3.org/2000/svg" xmlns:xlink="http://www.w3.org/1999/xlink" x="0px" y="0px"
	 width="512px" height="512px" viewBox="0 0 512 512" enable-background="new 0 0 512 512" xml:space="preserve">
<rect x="38.314" y="160.295" width="37.699" height="188.497"/>
<path d="M473.314,305.547c-2.897,10.526-7.549,19.185-13.958,25.972c-6.404,6.787-14.033,11.747-22.88,14.871
	c-8.85,3.124-18.614,4.688-29.288,4.688c-15.254,0-28.45-3.088-39.586-9.265c-11.137-6.177-19.675-15.063-25.625-26.658
	c-5.949-11.587-8.926-25.545-8.926-41.873c0-16.32,2.977-30.277,8.926-41.869c5.949-11.591,14.488-20.481,25.625-26.658
	c11.137-6.177,24.256-9.265,39.359-9.265c10.522,0,20.21,1.484,29.056,4.461c8.846,2.973,16.324,7.513,22.425,13.614
	s10.446,13.958,13.044,23.566l-34.551,13.958c-2.139-9.457-5.606-15.937-10.41-19.448c-4.808-3.507-10.869-5.263-18.191-5.263
	c-7.174,0-13.387,1.756-18.65,5.263c-5.263,3.511-9.305,8.734-12.126,15.673c-2.825,6.943-4.234,15.598-4.234,25.968
	c0,10.223,1.293,18.842,3.89,25.856c2.59,7.019,6.52,12.282,11.783,15.789c5.263,3.511,11.783,5.263,19.564,5.263
	c7.322,0,13.535-2.019,18.65-6.065c5.107-4.038,8.579-10.255,10.41-18.646L473.314,305.547z"/>
<path d="M274.042,197.777h-47.136V160.2H113.713V197.9h113.15l-13.285,37.794h-99.864v37.699h86.612l-13.252,37.699h-73.36v37.699
	h60.108h13.505V311.07h37.797h3.182h46.617l11.478,37.722h40.5L274.042,197.777z M233.438,284.296l10.171-32.748l6.181-23.57h0.455
	l6.636,23.797l9.895,32.52H233.438z"/>
</svg>
