<?xml version="1.0" encoding="utf-8"?>
<!-- Generator: Adobe Illustrator 26.0.0, SVG Export Plug-In . SVG Version: 6.00 Build 0)  -->
<svg version="1.1" id="Calque_1" xmlns="http://www.w3.org/2000/svg" xmlns:xlink="http://www.w3.org/1999/xlink" x="0px" y="0px"
	 width="200px" height="50px" viewBox="0 0 200 50" enable-background="new 0 0 200 50" xml:space="preserve">
<g>
	<polygon fill="#1A171B" points="60.329,16.054 65.259,16.054 65.259,14.524 60.329,14.524 60.329,11.294 66.636,11.294 
		66.636,9.73 58.51,9.73 58.51,20.95 66.874,20.95 66.874,19.386 60.329,19.386 	"/>
	<path fill="#1A171B" d="M71.787,19.675c-0.34,0-0.583-0.079-0.731-0.238c-0.147-0.158-0.221-0.447-0.221-0.867V8.625h-1.819v10.098
		c0,0.816,0.179,1.419,0.536,1.811s0.915,0.586,1.674,0.586c0.25,0,0.499-0.025,0.748-0.077c0.25-0.051,0.47-0.122,0.663-0.212
		l0.204-1.36c-0.215,0.08-0.394,0.133-0.536,0.162S71.991,19.675,71.787,19.675z"/>
	<path fill="#1A171B" d="M80.091,12.782c-0.583-0.334-1.278-0.501-2.083-0.501c-0.816,0-1.538,0.178-2.167,0.536
		c-0.629,0.357-1.122,0.867-1.479,1.53s-0.535,1.448-0.535,2.354s0.178,1.691,0.535,2.354s0.859,1.173,1.505,1.53
		c0.646,0.357,1.394,0.536,2.244,0.536c0.839,0,1.575-0.175,2.21-0.527c0.635-0.351,1.105-0.839,1.411-1.462l-1.445-0.68
		c-0.215,0.397-0.499,0.7-0.85,0.91c-0.352,0.209-0.805,0.314-1.36,0.314c-0.51,0-0.952-0.113-1.326-0.34
		c-0.374-0.227-0.663-0.561-0.867-1.003c-0.143-0.31-0.217-0.684-0.26-1.088h6.21c0.022-0.136,0.04-0.294,0.051-0.476
		c0.011-0.181,0.017-0.374,0.017-0.578c0-0.748-0.156-1.42-0.467-2.015C81.123,13.58,80.675,13.116,80.091,12.782z M75.867,15.085
		c0.192-0.453,0.467-0.793,0.824-1.02c0.357-0.227,0.785-0.34,1.284-0.34c0.725,0,1.28,0.241,1.666,0.723
		c0.288,0.361,0.45,0.828,0.484,1.402h-4.476C75.697,15.572,75.769,15.316,75.867,15.085z"/>
	<path fill="#1A171B" d="M95.978,12.62c-0.476-0.227-0.986-0.34-1.53-0.34c-0.374,0-0.754,0.06-1.139,0.178
		c-0.385,0.119-0.737,0.304-1.054,0.553c-0.318,0.25-0.567,0.561-0.748,0.935c-0.261-0.555-0.649-0.972-1.165-1.25
		c-0.516-0.278-1.08-0.417-1.691-0.417c-0.556,0-1.08,0.13-1.573,0.391s-0.887,0.663-1.182,1.207l-0.085-1.428h-1.615v8.5h1.819
		v-4.522c0-0.635,0.113-1.145,0.34-1.53s0.51-0.669,0.85-0.85s0.68-0.272,1.02-0.272c0.51,0,0.929,0.153,1.258,0.459
		c0.328,0.306,0.493,0.805,0.493,1.496v5.219h1.819v-4.624c0-0.555,0.102-1.022,0.306-1.402s0.473-0.666,0.808-0.858
		c0.334-0.193,0.7-0.289,1.097-0.289c0.51,0,0.929,0.153,1.258,0.459c0.329,0.306,0.493,0.805,0.493,1.496v5.219h1.819v-5.508
		c0.011-0.726-0.133-1.32-0.434-1.785S96.454,12.847,95.978,12.62z"/>
	<path fill="#1A171B" d="M106.05,12.782c-0.583-0.334-1.278-0.501-2.083-0.501c-0.816,0-1.538,0.178-2.167,0.536
		c-0.629,0.357-1.122,0.867-1.479,1.53s-0.535,1.448-0.535,2.354s0.178,1.691,0.535,2.354s0.859,1.173,1.505,1.53
		c0.646,0.357,1.394,0.536,2.244,0.536c0.839,0,1.575-0.175,2.21-0.527c0.635-0.351,1.105-0.839,1.411-1.462l-1.445-0.68
		c-0.215,0.397-0.499,0.7-0.85,0.91c-0.352,0.209-0.805,0.314-1.36,0.314c-0.51,0-0.952-0.113-1.326-0.34
		c-0.374-0.227-0.663-0.561-0.867-1.003c-0.143-0.31-0.217-0.684-0.26-1.088h6.21c0.022-0.136,0.04-0.294,0.051-0.476
		c0.011-0.181,0.017-0.374,0.017-0.578c0-0.748-0.156-1.42-0.467-2.015C107.081,13.58,106.633,13.116,106.05,12.782z
		 M101.826,15.085c0.192-0.453,0.467-0.793,0.824-1.02c0.357-0.227,0.785-0.34,1.284-0.34c0.725,0,1.28,0.241,1.666,0.723
		c0.288,0.361,0.45,0.828,0.484,1.402h-4.476C101.656,15.572,101.727,15.316,101.826,15.085z"/>
	<path fill="#1A171B" d="M116.352,12.629c-0.482-0.232-1.023-0.349-1.624-0.349c-0.465,0-0.904,0.074-1.317,0.221
		c-0.414,0.147-0.771,0.383-1.071,0.706c-0.197,0.212-0.352,0.472-0.488,0.755l-0.081-1.511h-1.615v8.5h1.819v-4.522
		c0-0.646,0.116-1.162,0.349-1.547c0.232-0.385,0.524-0.666,0.875-0.842c0.351-0.175,0.714-0.263,1.088-0.263
		c0.521,0,0.955,0.161,1.3,0.484c0.346,0.323,0.519,0.904,0.519,1.743v4.947h1.819v-5.508c0-0.714-0.142-1.303-0.425-1.768
		S116.833,12.861,116.352,12.629z"/>
	<path fill="#1A171B" d="M125.081,19.463c-0.227,0.096-0.493,0.145-0.799,0.145c-0.374,0-0.672-0.096-0.893-0.289
		c-0.221-0.193-0.332-0.499-0.332-0.918v-4.522h2.924V12.45h-2.924V9.951l-1.819,0.51v1.989h-1.632v1.428h1.632v4.828
		c0.011,0.578,0.13,1.045,0.357,1.403c0.227,0.357,0.544,0.615,0.952,0.773c0.408,0.159,0.856,0.238,1.343,0.238
		c0.464,0,0.887-0.065,1.267-0.195c0.379-0.13,0.7-0.309,0.96-0.536l-0.408-1.326C125.517,19.233,125.308,19.367,125.081,19.463z"/>
	<path fill="#1A171B" d="M133.666,12.807c-0.635-0.351-1.366-0.527-2.193-0.527c-0.828,0-1.559,0.176-2.193,0.527
		c-0.635,0.352-1.134,0.858-1.496,1.521c-0.363,0.663-0.544,1.454-0.544,2.372s0.181,1.708,0.544,2.372
		c0.362,0.663,0.861,1.17,1.496,1.521c0.634,0.352,1.365,0.527,2.193,0.527c0.827,0,1.558-0.175,2.193-0.527
		c0.635-0.351,1.13-0.858,1.487-1.521c0.357-0.663,0.536-1.454,0.536-2.372s-0.178-1.708-0.536-2.372
		C134.796,13.665,134.301,13.159,133.666,12.807z M133.581,18.324c-0.193,0.448-0.465,0.788-0.816,1.02
		c-0.352,0.232-0.782,0.349-1.292,0.349c-0.51,0-0.943-0.116-1.301-0.349c-0.357-0.232-0.632-0.572-0.824-1.02
		c-0.193-0.448-0.289-0.989-0.289-1.624c0-0.646,0.096-1.19,0.289-1.632c0.192-0.442,0.467-0.779,0.824-1.012
		c0.357-0.232,0.791-0.349,1.301-0.349c0.51,0,0.94,0.117,1.292,0.349c0.351,0.232,0.623,0.569,0.816,1.012
		c0.192,0.442,0.289,0.986,0.289,1.632C133.87,17.335,133.773,17.876,133.581,18.324z"/>
	<path fill="#1A171B" d="M142.37,12.28c-0.657,0-1.21,0.145-1.657,0.434c-0.448,0.289-0.785,0.711-1.012,1.266l-0.17-1.53h-1.547
		v8.5h1.819v-4.505c0-0.578,0.11-1.054,0.332-1.428s0.501-0.654,0.841-0.841c0.34-0.187,0.686-0.281,1.037-0.281
		c0.261,0,0.468,0.015,0.621,0.042c0.153,0.029,0.292,0.065,0.417,0.111l0.255-1.598c-0.113-0.057-0.255-0.099-0.425-0.127
		S142.54,12.28,142.37,12.28z"/>
	<path fill="#1A171B" d="M152.757,9.73l-4.233,11.22h1.87l1.067-2.941h4.725l1.059,2.941h1.921l-4.233-11.22H152.757z
		 M151.998,16.53l1.32-3.638l0.476-1.581h0.051l0.51,1.615l1.298,3.604H151.998z"/>
	<path fill="#1A171B" d="M166.731,13.884c-0.188-0.393-0.451-0.732-0.799-1.009c-0.499-0.396-1.111-0.595-1.836-0.595
		c-0.703,0-1.349,0.173-1.938,0.519s-1.06,0.847-1.411,1.504c-0.351,0.657-0.527,1.462-0.527,2.414c0,0.918,0.164,1.706,0.493,2.363
		c0.329,0.658,0.779,1.162,1.352,1.513c0.572,0.352,1.209,0.527,1.912,0.527c0.499,0,0.966-0.099,1.403-0.297
		c0.436-0.198,0.802-0.481,1.096-0.85c0.15-0.188,0.271-0.395,0.365-0.619l0.094,1.597h1.615V8.625h-1.819V13.884z M166.442,18.23
		c-0.193,0.454-0.465,0.805-0.816,1.054c-0.352,0.25-0.771,0.374-1.258,0.374c-0.737,0-1.309-0.264-1.717-0.791
		c-0.408-0.527-0.612-1.25-0.612-2.167s0.21-1.638,0.629-2.159c0.419-0.521,1.008-0.782,1.768-0.782c0.453,0,0.853,0.113,1.199,0.34
		c0.346,0.227,0.615,0.553,0.808,0.978c0.192,0.425,0.289,0.933,0.289,1.521C166.731,17.233,166.635,17.777,166.442,18.23z"/>
	<path fill="#1A171B" d="M177.39,13.884c-0.188-0.393-0.451-0.732-0.799-1.009c-0.499-0.396-1.111-0.595-1.836-0.595
		c-0.703,0-1.349,0.173-1.938,0.519s-1.06,0.847-1.411,1.504c-0.351,0.657-0.527,1.462-0.527,2.414c0,0.918,0.164,1.706,0.493,2.363
		c0.329,0.658,0.779,1.162,1.352,1.513c0.572,0.352,1.209,0.527,1.912,0.527c0.499,0,0.966-0.099,1.403-0.297
		c0.436-0.198,0.802-0.481,1.096-0.85c0.15-0.188,0.271-0.395,0.365-0.619l0.094,1.597h1.615V8.625h-1.819V13.884z M177.101,18.23
		c-0.193,0.454-0.465,0.805-0.816,1.054c-0.352,0.25-0.771,0.374-1.258,0.374c-0.737,0-1.309-0.264-1.717-0.791
		c-0.408-0.527-0.612-1.25-0.612-2.167s0.21-1.638,0.629-2.159c0.419-0.521,1.008-0.782,1.768-0.782c0.453,0,0.853,0.113,1.199,0.34
		c0.346,0.227,0.615,0.553,0.808,0.978c0.192,0.425,0.289,0.933,0.289,1.521C177.39,17.233,177.294,17.777,177.101,18.23z"/>
	<path fill="#1A171B" d="M187.913,12.807c-0.635-0.351-1.366-0.527-2.193-0.527c-0.828,0-1.559,0.176-2.193,0.527
		c-0.635,0.352-1.134,0.858-1.496,1.521c-0.363,0.663-0.544,1.454-0.544,2.372s0.181,1.708,0.544,2.372
		c0.362,0.663,0.861,1.17,1.496,1.521c0.634,0.352,1.365,0.527,2.193,0.527c0.827,0,1.558-0.175,2.193-0.527
		c0.635-0.351,1.13-0.858,1.487-1.521c0.357-0.663,0.536-1.454,0.536-2.372s-0.178-1.708-0.536-2.372
		C189.044,13.665,188.548,13.159,187.913,12.807z M187.828,18.324c-0.193,0.448-0.465,0.788-0.816,1.02
		c-0.352,0.232-0.782,0.349-1.292,0.349c-0.51,0-0.943-0.116-1.301-0.349c-0.357-0.232-0.632-0.572-0.824-1.02
		c-0.193-0.448-0.289-0.989-0.289-1.624c0-0.646,0.096-1.19,0.289-1.632c0.192-0.442,0.467-0.779,0.824-1.012
		c0.357-0.232,0.791-0.349,1.301-0.349c0.51,0,0.94,0.117,1.292,0.349c0.351,0.232,0.623,0.569,0.816,1.012
		c0.192,0.442,0.289,0.986,0.289,1.632C188.117,17.335,188.021,17.876,187.828,18.324z"/>
	<path fill="#1A171B" d="M199.575,13.674c-0.283-0.465-0.666-0.813-1.147-1.045c-0.482-0.232-1.023-0.349-1.624-0.349
		c-0.465,0-0.904,0.074-1.317,0.221c-0.414,0.147-0.771,0.383-1.071,0.706c-0.197,0.212-0.352,0.472-0.488,0.755l-0.081-1.511
		h-1.615v8.5h1.819v-4.522c0-0.646,0.116-1.162,0.349-1.547c0.232-0.385,0.524-0.666,0.875-0.842
		c0.351-0.175,0.714-0.263,1.088-0.263c0.521,0,0.955,0.161,1.3,0.484c0.346,0.323,0.519,0.904,0.519,1.743v4.947H200v-5.508
		C200,14.728,199.858,14.139,199.575,13.674z"/>
</g>
<g>
	<path fill="#1A171B" d="M66.714,36.378c-0.19,0.69-0.495,1.258-0.915,1.703s-0.92,0.77-1.5,0.975
		c-0.58,0.205-1.22,0.308-1.92,0.308c-1,0-1.865-0.203-2.595-0.607s-1.29-0.987-1.68-1.748c-0.39-0.76-0.585-1.675-0.585-2.745
		c0-1.07,0.195-1.985,0.585-2.745c0.39-0.76,0.95-1.343,1.68-1.748c0.73-0.405,1.59-0.607,2.58-0.607
		c0.69,0,1.325,0.097,1.905,0.292c0.58,0.195,1.07,0.493,1.47,0.892c0.4,0.4,0.685,0.915,0.855,1.545l-2.265,0.915
		c-0.14-0.62-0.367-1.045-0.682-1.275c-0.315-0.23-0.713-0.345-1.193-0.345c-0.47,0-0.877,0.115-1.222,0.345
		c-0.345,0.23-0.61,0.573-0.795,1.028s-0.277,1.022-0.277,1.702c0,0.67,0.085,1.235,0.255,1.695s0.428,0.805,0.772,1.035
		c0.345,0.23,0.773,0.345,1.283,0.345c0.48,0,0.887-0.132,1.223-0.397c0.335-0.265,0.562-0.672,0.682-1.223L66.714,36.378z"/>
	<path fill="#1A171B" d="M71.544,31.563c0.79,0,1.482,0.152,2.078,0.458c0.595,0.305,1.06,0.75,1.395,1.335s0.502,1.288,0.502,2.107
		c0,0.82-0.167,1.522-0.502,2.107s-0.8,1.03-1.395,1.335c-0.595,0.305-1.288,0.458-2.078,0.458c-0.77,0-1.455-0.152-2.055-0.458
		c-0.6-0.305-1.068-0.75-1.403-1.335s-0.502-1.287-0.502-2.107c0-0.82,0.167-1.522,0.502-2.107s0.803-1.03,1.403-1.335
		C70.089,31.716,70.774,31.563,71.544,31.563z M71.544,33.378c-0.29,0-0.54,0.07-0.75,0.21s-0.37,0.365-0.48,0.675
		c-0.11,0.31-0.165,0.71-0.165,1.2c0,0.49,0.055,0.888,0.165,1.192c0.11,0.305,0.27,0.53,0.48,0.675s0.46,0.217,0.75,0.217
		c0.3,0,0.555-0.072,0.765-0.217s0.37-0.37,0.48-0.675c0.11-0.305,0.165-0.702,0.165-1.192c0-0.49-0.055-0.89-0.165-1.2
		c-0.11-0.31-0.27-0.535-0.48-0.675S71.844,33.378,71.544,33.378z"/>
	<path fill="#1A171B" d="M76.96,39.213v-7.5h2.28l0.075,1.455c0.24-0.53,0.578-0.93,1.013-1.2c0.435-0.27,0.938-0.405,1.507-0.405
		c0.56,0,1.045,0.125,1.455,0.375c0.41,0.25,0.715,0.62,0.915,1.11c0.16-0.33,0.367-0.605,0.623-0.825
		c0.255-0.22,0.547-0.385,0.877-0.495s0.67-0.165,1.02-0.165c0.5,0,0.939,0.097,1.32,0.292c0.38,0.195,0.685,0.49,0.915,0.885
		c0.23,0.396,0.34,0.888,0.33,1.478l-0.03,4.995h-2.52v-4.41c0-0.48-0.092-0.815-0.277-1.005s-0.433-0.285-0.743-0.285
		c-0.25,0-0.478,0.063-0.682,0.188c-0.205,0.125-0.363,0.313-0.473,0.562c-0.11,0.25-0.165,0.565-0.165,0.945v4.005h-2.55v-4.41
		c0-0.48-0.095-0.815-0.285-1.005s-0.435-0.285-0.735-0.285c-0.23,0-0.448,0.06-0.653,0.18s-0.367,0.308-0.487,0.562
		s-0.18,0.587-0.18,0.998v3.96H76.96z"/>
	<path fill="#1A171B" d="M91.074,42.363v-10.65h2.295l0.135,2.715l-0.3-0.315c0.07-0.5,0.225-0.94,0.465-1.32
		c0.24-0.38,0.55-0.68,0.93-0.9c0.38-0.22,0.815-0.33,1.305-0.33c0.62,0,1.16,0.152,1.62,0.458c0.459,0.305,0.817,0.745,1.072,1.32
		c0.255,0.575,0.382,1.273,0.382,2.093s-0.13,1.525-0.39,2.115c-0.26,0.59-0.623,1.04-1.088,1.35
		c-0.465,0.31-1.007,0.465-1.627,0.465c-0.68,0-1.23-0.203-1.65-0.607s-0.7-0.917-0.84-1.538l0.24-0.36v5.505H91.074z
		 M95.004,37.488c0.44,0,0.785-0.162,1.035-0.487c0.25-0.325,0.375-0.837,0.375-1.538c0-0.7-0.123-1.212-0.367-1.538
		c-0.245-0.325-0.588-0.487-1.028-0.487c-0.28,0-0.525,0.078-0.735,0.232c-0.21,0.155-0.373,0.382-0.487,0.683
		c-0.115,0.3-0.173,0.67-0.173,1.11c0,0.42,0.053,0.783,0.158,1.087c0.105,0.305,0.262,0.538,0.473,0.698
		C94.464,37.409,94.714,37.488,95.004,37.488z"/>
	<path fill="#1A171B" d="M104.049,31.563c0.79,0,1.482,0.152,2.078,0.458c0.595,0.305,1.06,0.75,1.395,1.335
		s0.502,1.288,0.502,2.107c0,0.82-0.167,1.522-0.502,2.107s-0.8,1.03-1.395,1.335c-0.595,0.305-1.288,0.458-2.078,0.458
		c-0.77,0-1.455-0.152-2.055-0.458c-0.6-0.305-1.068-0.75-1.403-1.335s-0.502-1.287-0.502-2.107c0-0.82,0.167-1.522,0.502-2.107
		s0.803-1.03,1.403-1.335C102.594,31.716,103.279,31.563,104.049,31.563z M104.049,33.378c-0.29,0-0.54,0.07-0.75,0.21
		s-0.37,0.365-0.48,0.675c-0.11,0.31-0.165,0.71-0.165,1.2c0,0.49,0.055,0.888,0.165,1.192c0.11,0.305,0.27,0.53,0.48,0.675
		s0.46,0.217,0.75,0.217c0.3,0,0.555-0.072,0.765-0.217s0.37-0.37,0.48-0.675c0.11-0.305,0.165-0.702,0.165-1.192
		c0-0.49-0.055-0.89-0.165-1.2c-0.11-0.31-0.27-0.535-0.48-0.675S104.349,33.378,104.049,33.378z"/>
	<path fill="#1A171B" d="M109.464,39.213v-7.5h2.28l0.135,2.58l-0.285-0.285c0.1-0.54,0.277-0.99,0.533-1.35
		c0.255-0.36,0.575-0.632,0.96-0.817c0.385-0.185,0.817-0.277,1.297-0.277c0.52,0,0.973,0.1,1.357,0.3
		c0.385,0.2,0.688,0.495,0.908,0.885c0.22,0.39,0.33,0.88,0.33,1.47v4.995h-2.55v-4.32c0-0.52-0.1-0.88-0.3-1.08
		c-0.2-0.2-0.455-0.3-0.765-0.3c-0.24,0-0.465,0.058-0.675,0.173c-0.21,0.115-0.375,0.297-0.495,0.547s-0.18,0.585-0.18,1.005v3.975
		H109.464z"/>
	<path fill="#1A171B" d="M120.264,38.906c-0.61-0.305-1.075-0.75-1.395-1.335c-0.32-0.585-0.48-1.287-0.48-2.107
		c0-0.81,0.163-1.51,0.487-2.1c0.325-0.59,0.783-1.037,1.373-1.342s1.275-0.458,2.055-0.458c0.78,0,1.445,0.152,1.995,0.458
		c0.55,0.305,0.975,0.725,1.275,1.26c0.3,0.535,0.45,1.147,0.45,1.837c0,0.18-0.005,0.358-0.015,0.533
		c-0.01,0.175-0.025,0.328-0.045,0.458h-5.94v-1.38h4.83l-1.23,0.66c0.02-0.669-0.078-1.177-0.292-1.522
		c-0.215-0.345-0.558-0.518-1.027-0.518c-0.33,0-0.605,0.075-0.825,0.225s-0.388,0.385-0.502,0.705
		c-0.115,0.32-0.172,0.725-0.172,1.215c0,0.5,0.062,0.9,0.188,1.2s0.308,0.52,0.547,0.66c0.24,0.14,0.535,0.21,0.885,0.21
		c0.36,0,0.655-0.073,0.885-0.218c0.23-0.145,0.405-0.357,0.525-0.637l2.04,0.69c-0.21,0.61-0.632,1.09-1.268,1.44
		c-0.635,0.35-1.367,0.525-2.197,0.525C121.589,39.363,120.874,39.211,120.264,38.906z"/>
	<path fill="#1A171B" d="M127.449,39.213v-7.5h2.28l0.135,2.58l-0.285-0.285c0.1-0.54,0.277-0.99,0.533-1.35
		c0.255-0.36,0.575-0.632,0.96-0.817c0.385-0.185,0.817-0.277,1.297-0.277c0.52,0,0.973,0.1,1.357,0.3
		c0.385,0.2,0.688,0.495,0.908,0.885c0.22,0.39,0.33,0.88,0.33,1.47v4.995h-2.55v-4.32c0-0.52-0.1-0.88-0.3-1.08
		c-0.2-0.2-0.455-0.3-0.765-0.3c-0.24,0-0.465,0.058-0.675,0.173c-0.21,0.115-0.375,0.297-0.495,0.547s-0.18,0.585-0.18,1.005v3.975
		H127.449z"/>
	<path fill="#1A171B" d="M142.074,31.713v1.815h-6.075v-1.815H142.074z M139.839,29.329v7.215c0,0.36,0.087,0.618,0.263,0.772
		c0.175,0.155,0.417,0.232,0.728,0.232c0.24,0,0.447-0.027,0.623-0.083c0.175-0.055,0.332-0.137,0.472-0.248l0.27,1.575
		c-0.25,0.18-0.565,0.32-0.945,0.42s-0.77,0.15-1.17,0.15c-0.57,0-1.062-0.08-1.478-0.24c-0.415-0.16-0.735-0.415-0.96-0.765
		s-0.343-0.815-0.353-1.395v-6.93L139.839,29.329z"/>
	<path fill="#1A171B" d="M144.309,38.996c-0.64-0.245-1.175-0.598-1.605-1.058l1.2-1.41c0.27,0.34,0.612,0.613,1.027,0.817
		c0.415,0.205,0.868,0.308,1.357,0.308c0.33,0,0.593-0.047,0.788-0.143c0.195-0.095,0.292-0.232,0.292-0.413
		c0-0.14-0.052-0.255-0.157-0.345s-0.303-0.165-0.593-0.225l-1.035-0.195c-0.94-0.19-1.613-0.47-2.018-0.84
		c-0.405-0.37-0.607-0.865-0.607-1.485c0-0.42,0.132-0.817,0.397-1.192c0.265-0.375,0.662-0.677,1.192-0.908
		c0.53-0.23,1.18-0.345,1.95-0.345c0.76,0,1.428,0.11,2.003,0.33c0.575,0.22,1.042,0.54,1.402,0.96l-1.23,1.38
		c-0.24-0.29-0.55-0.522-0.93-0.698c-0.38-0.175-0.765-0.262-1.155-0.262c-0.23,0-0.428,0.022-0.593,0.067s-0.288,0.11-0.367,0.195
		c-0.08,0.085-0.12,0.183-0.12,0.293c0,0.14,0.067,0.257,0.203,0.352c0.135,0.095,0.362,0.173,0.682,0.233l1.365,0.27
		c0.75,0.14,1.3,0.39,1.65,0.75c0.35,0.36,0.525,0.815,0.525,1.365c0,0.75-0.302,1.365-0.907,1.845
		c-0.605,0.48-1.478,0.72-2.618,0.72C145.648,39.363,144.949,39.241,144.309,38.996z"/>
</g>
<g>
	<polygon points="12.178,28.915 12.144,28.915 11.683,30.673 10.84,33.385 13.492,33.385 12.672,30.69 	"/>
	<path d="M47.866,23.272c0-3.86-1.503-7.488-4.232-10.216c-2.228-2.228-5.06-3.622-8.123-4.065
		c-0.564-2.079-1.652-3.942-3.132-5.422C30.175,1.364,27.128,0,23.763,0s-6.412,1.364-8.617,3.569
		c-0.294,0.294-0.571,0.606-0.834,0.929c-2.983,0.476-5.737,1.857-7.914,4.034c-2.73,2.73-4.232,6.358-4.232,10.216
		c0,1.861,0.357,3.665,1.025,5.344C1.215,26.258,0,29.13,0,32.293c0,3.365,1.364,6.412,3.569,8.617
		c1.618,1.618,3.691,2.776,6.008,3.282c0.412,0.549,0.851,1.081,1.345,1.575C13.651,48.497,17.279,50,21.139,50
		s7.488-1.503,10.216-4.232c0.498-0.498,0.948-1.028,1.362-1.579c0.846,0.186,1.722,0.291,2.623,0.291
		c3.365,0,6.412-1.364,8.617-3.569c2.205-2.205,3.569-5.252,3.569-8.617c0-1.343-0.226-2.632-0.627-3.84
		C47.526,26.82,47.866,25.074,47.866,23.272z M19.268,6.556h8.769v2.269h-5.835v2.286h4.641v2.133h-4.641v2.303h6.057v2.269h-8.991
		V6.556z M26.345,24.092c-1.148,1.259-2.039,2.753-2.582,4.409c-0.542-1.657-1.434-3.151-2.582-4.409
		c0.833,0.18,1.695,0.28,2.582,0.28S25.512,24.272,26.345,24.092z M3.644,18.748c0-3.464,1.349-6.721,3.799-9.172
		c1.601-1.601,3.55-2.721,5.674-3.313c-0.978,1.754-1.54,3.771-1.54,5.922c0,3.163,1.215,6.035,3.191,8.201
		c-0.833-0.18-1.695-0.28-2.582-0.28c-2.983,0-5.712,1.075-7.831,2.855C3.896,21.622,3.644,20.206,3.644,18.748z M10.22,35.381
		l-0.789,2.542H6.479l3.958-11.26h3.515l3.941,11.26h-3.02L14.1,35.381H10.22z M30.31,44.723c-2.45,2.45-5.706,3.799-9.172,3.799
		s-6.722-1.349-9.172-3.799c-0.086-0.086-0.159-0.179-0.242-0.267c0.154,0.006,0.305,0.023,0.461,0.023
		c3.365,0,6.412-1.364,8.617-3.569c1.337-1.337,2.358-2.986,2.96-4.825c0.602,1.839,1.623,3.488,2.96,4.825
		c1.249,1.249,2.775,2.215,4.469,2.83C30.915,44.078,30.625,44.409,30.31,44.723z M39.528,36.636
		c-0.478,0.506-1.046,0.876-1.706,1.109c-0.66,0.233-1.388,0.35-2.184,0.35c-1.137,0-2.121-0.23-2.952-0.691
		c-0.83-0.461-1.467-1.123-1.911-1.988c-0.444-0.864-0.665-1.905-0.665-3.122c0-1.217,0.222-2.258,0.665-3.122
		c0.444-0.864,1.08-1.527,1.911-1.988c0.83-0.461,1.809-0.691,2.935-0.691c0.785,0,1.507,0.111,2.166,0.333
		c0.66,0.222,1.217,0.56,1.672,1.015c0.455,0.455,0.779,1.041,0.973,1.757l-2.576,1.041c-0.159-0.705-0.418-1.188-0.776-1.45
		c-0.359-0.262-0.81-0.392-1.356-0.392c-0.535,0-0.998,0.131-1.391,0.392c-0.392,0.262-0.694,0.651-0.904,1.169
		c-0.211,0.518-0.316,1.163-0.316,1.936c0,0.762,0.096,1.405,0.29,1.928c0.193,0.523,0.486,0.916,0.879,1.177
		c0.392,0.262,0.879,0.392,1.459,0.392c0.546,0,1.009-0.151,1.391-0.452c0.381-0.301,0.64-0.765,0.776-1.39l2.661,0.751
		C40.353,35.484,40.006,36.129,39.528,36.636z M45.997,26.389c-0.554-0.998-1.24-1.912-2.041-2.713
		c-2.205-2.205-5.252-3.569-8.617-3.569c-0.887,0-1.749,0.1-2.582,0.28c1.976-2.166,3.191-5.038,3.191-8.201
		c0-0.563-0.052-1.113-0.126-1.656c2.547,0.476,4.893,1.699,6.766,3.571c2.449,2.45,3.799,5.706,3.799,9.172
		C46.388,24.338,46.246,25.38,45.997,26.389z"/>
</g>
</svg>
