<?xml version="1.0" encoding="utf-8"?>
<!-- Generator: Adobe Illustrator 26.0.0, SVG Export Plug-In . SVG Version: 6.00 Build 0)  -->
<svg version="1.1" id="Calque_1" xmlns="http://www.w3.org/2000/svg" xmlns:xlink="http://www.w3.org/1999/xlink" x="0px" y="0px"
	 width="512px" height="512px" viewBox="0 0 512 512" enable-background="new 0 0 512 512" xml:space="preserve">
<g>
	<polygon points="153.541,289.703 153.246,289.703 149.236,304.992 141.907,328.59 164.98,328.59 157.845,305.14 	"/>
	<path d="M464.032,240.609c-0.004-33.578-13.079-65.144-36.818-88.883c-19.386-19.384-44.021-31.51-70.666-35.363
		c-4.91-18.087-14.374-34.3-27.245-47.171c-19.186-19.186-45.691-31.052-74.968-31.052s-55.781,11.867-74.967,31.052
		c-2.561,2.561-4.967,5.27-7.256,8.081c-25.952,4.139-49.909,16.152-68.852,35.095c-23.747,23.747-36.822,55.313-36.818,88.883
		c-0.002,16.189,3.106,31.887,8.918,46.492c-17.192,18.844-27.764,43.831-27.764,71.349c0,29.277,11.867,55.781,31.052,74.967
		c14.076,14.076,32.111,24.155,52.269,28.556c3.585,4.776,7.404,9.408,11.702,13.706c23.739,23.743,55.305,36.818,88.883,36.818
		s65.144-13.075,88.883-36.818c4.334-4.333,8.245-8.945,11.848-13.737c7.358,1.616,14.979,2.528,22.822,2.528
		c29.277,0,55.782-11.867,74.967-31.052c19.186-19.186,31.052-45.691,31.052-74.967c0-11.686-1.963-22.895-5.455-33.408
		C461.073,271.477,464.032,256.283,464.032,240.609z M215.225,95.178h76.293v19.742h-50.763v19.889h40.374v18.554h-40.374v20.036
		h52.692v19.742h-78.221V95.178z M276.798,247.744c-9.989,10.95-17.743,23.948-22.463,38.361
		c-4.719-14.413-12.473-27.411-22.463-38.361c7.245,1.564,14.749,2.435,22.463,2.435
		C262.048,250.179,269.551,249.309,276.798,247.744z M79.3,201.251c-0.004-30.138,11.736-58.473,33.052-79.793
		c13.93-13.927,30.888-23.675,49.36-28.822c-8.508,15.26-13.396,32.812-13.396,51.523c0,27.517,10.573,52.504,27.764,71.349
		c-7.245-1.564-14.749-2.435-22.463-2.435c-25.951,0-49.698,9.354-68.127,24.836C81.493,226.251,79.298,213.932,79.3,201.251z
		 M136.514,345.959l-6.868,22.115h-25.68l34.436-97.963h30.577l34.288,97.963h-26.272l-6.73-22.115H136.514z M311.294,427.232
		c-21.312,21.312-49.646,33.052-79.793,33.052s-58.481-11.74-79.793-33.052c-0.744-0.744-1.385-1.56-2.105-2.321
		c1.342,0.05,2.658,0.202,4.012,0.202c29.277,0,55.781-11.867,74.967-31.052c11.631-11.631,20.514-25.982,25.752-41.98
		c5.238,15.998,14.121,30.349,25.752,41.98c10.869,10.869,24.143,19.273,38.883,24.617
		C316.556,421.621,314.03,424.495,311.294,427.232z M391.493,356.869c-4.155,4.403-9.103,7.62-14.842,9.646
		c-5.741,2.026-12.075,3.042-18.999,3.042c-9.895,0-18.455-2.003-25.68-6.011c-7.224-4.007-12.764-9.771-16.623-17.293
		c-3.859-7.517-5.79-16.571-5.79-27.163c0-10.587,1.931-19.641,5.79-27.16c3.859-7.519,9.398-13.286,16.623-17.293
		c7.223-4.007,15.735-6.01,25.532-6.01c6.825,0,13.109,0.963,18.849,2.894c5.738,1.929,10.589,4.873,14.546,8.832
		c3.957,3.958,6.777,9.054,8.461,15.287l-22.413,9.053c-1.387-6.134-3.636-10.338-6.753-12.616c-3.119-2.275-7.051-3.414-11.8-3.414
		c-4.654,0-8.684,1.139-12.098,3.414c-3.414,2.278-6.036,5.666-7.867,10.167c-1.833,4.504-2.746,10.118-2.746,16.845
		c0,6.631,0.839,12.223,2.523,16.772c1.68,4.553,4.229,7.968,7.644,10.242c3.414,2.277,7.643,3.414,12.691,3.414
		c4.749,0,8.78-1.309,12.098-3.935c3.313-2.619,5.565-6.652,6.753-12.096l23.153,6.531
		C398.668,346.849,395.651,352.466,391.493,356.869z M447.774,267.728c-4.819-8.68-10.786-16.635-17.753-23.603
		c-19.185-19.186-45.691-31.052-74.967-31.052c-7.714,0-15.217,0.871-22.463,2.435c17.19-18.844,27.764-43.831,27.764-71.349
		c0-4.901-0.449-9.687-1.093-14.412c22.162,4.138,42.567,14.782,58.861,31.069c21.307,21.312,33.047,49.646,33.052,79.793
		C451.175,249.884,449.935,258.947,447.774,267.728z"/>
</g>
</svg>
