<?xml version="1.0" encoding="utf-8"?>
<!-- Generator: Adobe Illustrator 26.0.0, SVG Export Plug-In . SVG Version: 6.00 Build 0)  -->
<svg version="1.1" id="Calque_1" xmlns="http://www.w3.org/2000/svg" xmlns:xlink="http://www.w3.org/1999/xlink" x="0px" y="0px"
	 width="512px" height="512px" viewBox="0 0 512 512" enable-background="new 0 0 512 512" xml:space="preserve">
<g>
	<path d="M433.882,230.729c-12.781-12.779-27.668-22.687-43.878-29.4c0.761-5.84,1.287-11.734,1.287-17.72
		c0-36.142-14.072-70.115-39.621-95.665c-25.553-25.553-59.53-39.629-95.669-39.629c-36.138,0-70.112,14.072-95.665,39.625
		c-25.553,25.55-39.629,59.527-39.629,95.669c0,5.986,0.526,11.88,1.287,17.719c-16.207,6.712-31.09,16.619-43.866,29.397
		C52.575,256.275,38.5,290.252,38.5,326.394c0,36.135,14.072,70.108,39.625,95.665c25.557,25.553,59.53,39.625,95.665,39.625
		c30.143,0,58.708-9.916,82.21-27.995c23.504,18.079,52.067,27.995,82.209,27.995c36.138,0,70.115-14.075,95.672-39.629
		c25.55-25.55,39.618-59.523,39.618-95.662C473.5,290.252,459.432,256.275,433.882,230.729z M168.096,95.7
		c23.481-23.478,54.701-36.41,87.906-36.41c33.209,0,64.428,12.932,87.91,36.413c23.478,23.478,36.406,54.697,36.406,87.906
		c0,4.703-0.327,9.349-0.839,13.956c-10.238-3.267-20.921-5.209-31.841-5.959c0.232-2.652,0.386-5.317,0.386-8
		c0-24.582-9.574-47.691-26.954-65.068c-17.376-17.38-40.486-26.954-65.068-26.954c-24.582,0-47.692,9.57-65.071,26.954
		c-17.38,17.376-26.954,40.486-26.954,65.068c0,2.683,0.154,5.348,0.386,8c-10.921,0.75-21.604,2.691-31.841,5.959
		c-0.512-4.606-0.839-9.253-0.839-13.955C131.682,150.4,144.614,119.177,168.096,95.7z M280.901,383.703
		c-8.927-8.927-15.733-20.023-19.684-32.094l-5.216-15.926l-5.216,15.926c-3.951,12.071-10.756,23.167-19.684,32.094
		c-15.308,15.308-35.663,23.739-57.312,23.739c-21.652,0-42.004-8.431-57.308-23.739c-15.308-15.308-23.739-35.663-23.739-57.312
		c0-21.652,8.431-42.004,23.739-57.308c19.309-19.312,46.841-27.861,74.488-21.874l16.78,3.615l-11.567-12.678
		c-13.693-15.004-21.231-34.374-21.231-54.54c0-21.652,8.431-42.004,23.739-57.308c15.308-15.308,35.663-23.739,57.312-23.739
		c21.652,0,42.004,8.431,57.308,23.739c15.308,15.304,23.739,35.656,23.739,57.308c0,20.17-7.538,39.536-21.227,54.54
		l-11.571,12.682l16.783-3.622c27.611-5.973,55.172,2.561,74.488,21.877c15.304,15.304,23.735,35.656,23.735,57.308
		c0,21.652-8.431,42.004-23.735,57.312c-15.308,15.308-35.663,23.739-57.312,23.739C316.557,407.441,296.206,399.01,280.901,383.703
		z M179.46,234.552c-11.961-0.753-23.633,0.914-34.604,4.546c-4.835-9.648-8.484-19.849-10.646-30.49
		c10.182-3.411,20.845-5.433,31.773-6.122C168.39,213.905,172.93,224.786,179.46,234.552z M332.544,234.552
		c6.528-9.764,11.067-20.646,13.474-32.066c10.927,0.689,21.59,2.711,31.773,6.123c-2.16,10.634-5.807,20.828-10.637,30.472
		C356.196,235.451,344.529,233.787,332.544,234.552z M173.79,450.71c-33.205,0-64.421-12.932-87.906-36.41
		c-23.478-23.485-36.41-54.701-36.41-87.906c0-33.209,12.932-64.432,36.413-87.91c11.123-11.123,24.022-19.788,38.007-25.923
		c2.311,10.641,5.957,20.882,10.719,30.607c-9.482,4.48-18.263,10.526-25.892,18.155c-17.38,17.376-26.954,40.486-26.954,65.068
		s9.57,47.691,26.954,65.071c17.376,17.38,40.486,26.954,65.068,26.954c19.013,0,37.11-5.783,52.391-16.421
		c4.777,7.111,10.169,13.869,16.363,20.064c1.549,1.548,3.222,2.918,4.831,4.381C226.154,442.114,200.663,450.71,173.79,450.71z
		 M256,419.466c-1.917-1.697-3.871-3.341-5.697-5.166c-5.898-5.899-11.007-12.352-15.504-19.153c1.365-1.214,2.76-2.383,4.062-3.685
		c6.927-6.927,12.728-15,17.14-23.789c4.412,8.788,10.213,16.862,17.14,23.789c1.302,1.302,2.696,2.471,4.06,3.684
		c-4.496,6.8-9.606,13.252-15.503,19.151C259.873,416.124,257.918,417.768,256,419.466z M426.123,414.297
		c-23.485,23.481-54.708,36.413-87.913,36.413c-26.871,0-52.362-8.597-73.584-24.27c1.61-1.464,3.284-2.835,4.833-4.384
		c6.193-6.195,11.585-12.951,16.362-20.062c15.28,10.636,33.377,16.421,52.389,16.421c24.582,0,47.688-9.57,65.071-26.954
		c17.376-17.38,26.95-40.49,26.95-65.071c0-24.585-9.574-47.695-26.95-65.068c-7.632-7.632-16.406-13.685-25.887-18.169
		c4.758-9.721,8.401-19.957,10.711-30.593c13.988,6.136,26.892,14.802,38.018,25.927c23.478,23.474,36.403,54.693,36.403,87.906
		C462.526,359.6,449.601,390.819,426.123,414.297z"/>
	<path d="M238.826,262.791l-16.797-3.633l11.582,12.693c7.841,8.595,13.622,18.459,17.176,29.322l5.216,15.929l5.216-15.929
		c3.555-10.86,9.331-20.727,17.172-29.322l11.575-12.689l-16.79,3.63C261.721,265.263,250.279,265.263,238.826,262.791z
		 M256.002,285.119c-1.679-3.329-3.565-6.555-5.648-9.667c3.772,0.236,7.516,0.236,11.296,0
		C259.563,278.564,257.681,281.789,256.002,285.119z"/>
</g>
<path d="M224.078,223.587v-79.96h62.272v16.114h-41.434v16.234h32.954v15.144h-32.954v16.354h43.008v16.114H224.078z"/>
<path d="M133.265,366.372l28.107-79.96h24.957l27.987,79.96h-21.444l-15.63-51.368l-3.513-12.6h-0.241l-3.273,12.48l-15.991,51.489
	H133.265z M151.559,348.321v-14.176h44.464v14.176H151.559z"/>
<path d="M375.344,343.474c-1.534,5.573-3.997,10.158-7.39,13.752c-3.391,3.594-7.43,6.22-12.114,7.874
	c-4.686,1.654-9.856,2.482-15.507,2.482c-8.077,0-15.064-1.635-20.96-4.906s-10.418-7.975-13.568-14.115
	c-3.15-6.135-4.726-13.526-4.726-22.171c0-8.641,1.576-16.031,4.726-22.169s7.671-10.845,13.568-14.115s12.843-4.906,20.84-4.906
	c5.571,0,10.701,0.786,15.385,2.362c4.684,1.574,8.643,3.978,11.873,7.209c3.23,3.23,5.531,7.39,6.906,12.478l-18.294,7.39
	c-1.132-5.007-2.968-8.438-5.512-10.297c-2.546-1.857-5.755-2.787-9.632-2.787c-3.799,0-7.088,0.93-9.875,2.787
	c-2.787,1.859-4.927,4.625-6.421,8.299c-1.496,3.676-2.242,8.259-2.242,13.749c0,5.413,0.685,9.976,2.06,13.69
	c1.371,3.716,3.452,6.503,6.239,8.36c2.787,1.859,6.239,2.787,10.359,2.787c3.877,0,7.166-1.069,9.875-3.211
	c2.704-2.138,4.542-5.43,5.512-9.873L375.344,343.474z"/>
</svg>
